<svg xmlns="http://www.w3.org/2000/svg" viewBox="0 0 200 200"><defs><style>.a{fill:#fff;}</style></defs><path class="a" d="M69.29,103.62V99.25c0-20.15,0-40.29-.07-60.44,0-1.8.76-2.79,3-3.64,6.23-2.36,12.32-4.89,18.48-7.35.68-.27,1.41-.48,2.41-.82V174.89c-2.39-1.26-4.42-2.3-6.42-3.37-5.07-2.71-10.23-5.34-15.12-8.19a4.48,4.48,0,0,1-2.21-3.23c-.18-8.22-.06-16.45-.15-24.67a4.29,4.29,0,0,0-1.08-3c-9.36-9.39-18.83-18.73-28.26-28.08a3.58,3.58,0,0,1-.52-.91l-.75.4c4.2,16,8.39,32.08,12.73,48.66-3.13-1.65-5.66-3-8.16-4.31-3.76-2-7.24-4.33-11.3-6-7.08-2.84-9.69-7-11-12.46C15.67,108.16,9.81,86.62,4.09,65.05c-.46-1.72,0-2.65,2.33-3.5,6.32-2.37,12.5-4.94,19-7.55a12.85,12.85,0,0,1,.79,2.55C26.65,62,30.5,66.4,35,70.73,45.46,80.7,55.49,90.88,65.68,101l2.86,2.8Z"/><path class="a" d="M106.48,26.85c7.85,3.14,15.25,6,22.51,9.09a2.87,2.87,0,0,1,1.29,2.51c.06,20.64,0,41.28,0,61.92v4.12c4.11-4,7.61-7.33,11-10.71C150,85.17,158.51,76.46,167.44,68A17.79,17.79,0,0,0,173,58.06c.24-1.27.67-2.53,1.09-4.1,7.06,2.83,13.83,5.48,20.47,8.28a2.22,2.22,0,0,1,1,2.26c-3.54,13.82-7.18,27.63-10.8,41.44-2.5,9.53-5,19.06-7.44,28.61a6.56,6.56,0,0,1-3.89,4.64c-7.56,3.82-14.87,7.88-22.29,11.83-.72.39-1.5.72-2.83,1.34C152.6,136,156.76,120,160.92,104l-.46-.22c-1.67,1.56-3.38,3.11-5,4.7-7.81,7.73-15.66,15.45-23.34,23.25a5.89,5.89,0,0,0-1.72,3.81c-.16,8.23,0,16.45-.15,24.67A3.4,3.4,0,0,1,128.7,163c-6.82,3.81-13.81,7.48-20.76,11.18a11.68,11.68,0,0,1-1.46.5Z"/><path class="a" d="M178.1,50.13c-23.12-9.28-46.43-18.36-69.29-28-6.6-2.77-11.31-2.83-17.93,0C69.06,31.34,46.77,40,24.66,48.88a10.36,10.36,0,0,1-3.65.86L99.85,0q39.36,24.92,78.6,49.77A4.18,4.18,0,0,1,178.1,50.13Z"/><path class="a" d="M99.81,200,22.32,155.7l.38-.41c1.4.52,2.83,1,4.21,1.57q35,14,70,28.11a6.69,6.69,0,0,0,5.75,0q35.55-14.37,71.23-28.59a7.86,7.86,0,0,1,3.41-.71Z"/><path class="a" d="M122.6,172.19l37.12-19.87c7-3.76,14.1-7.5,21-11.34a4.78,4.78,0,0,0,2.23-2.56c5.28-19.79,10.45-39.59,15.65-59.39A6.93,6.93,0,0,1,200,76.16c0,2.35,0,4.71,0,7.07-.13,18.92-.31,37.84-.33,56.76,0,2.07-.88,3.18-3.54,4.2q-34.76,13.4-69.36,27c-1.21.48-2.45.92-3.68,1.37Z"/><path class="a" d="M76.55,172.6q-8.3-3.22-16.6-6.45Q31.47,155.07,3,144c-1.73-.67-3-1.28-3-2.93.08-21.63.05-43.25.05-65.28C1.36,80.6,2.59,85.1,3.78,89.6c4.24,16.16,8.43,32.33,12.79,48.47a5.73,5.73,0,0,0,2.75,3.15q27.74,15,55.65,29.87c.65.35,1.27.73,1.9,1.09Z"/></svg>